<svg xmlns="http://w3.org" viewBox="0 0 200 200">
    <!-- Side Shadow -->
    <path class="pill-side-light" d="M 30,100 C 60,60 140,60 170,100 C 140,140 60,140 30,100 L 30,120 C 60,160 140,160 170,120 L 170,100 Z" />
    <!-- Top Face -->
    <path class="pill-top" d="M 30,100 C 60,60 140,60 170,100 C 140,140 60,140 30,100 Z" />
    <!-- Outlines -->
    <path class="pill-line" d="M 30,100 C 60,60 140,60 170,100 C 140,140 60,140 30,100 Z" />
    <path class="pill-line" d="M 30,100 L 30,120 C 60,160 140,160 170,120 L 170,100" />
</svg>
