<svg xmlns="http://w3.org" viewBox="0 0 200 200">
    <!-- Left Extrusion -->
    <path class="pill-side-dark" d="M 30,100 L 100,150 L 100,170 L 30,120 Z" />
    <!-- Right Extrusion -->
    <path class="pill-side-light" d="M 100,150 L 170,100 L 170,120 L 100,170 Z" />
    <!-- Top Face -->
    <path class="pill-top" d="M 100,50 C 130,70 160,80 170,100 C 140,120 120,130 100,150 C 80,130 60,120 30,100 C 40,80 70,70 100,50 Z" />
    <!-- Outlines -->
    <path class="pill-line" d="M 100,50 C 130,70 160,80 170,100 C 140,120 120,130 100,150 C 80,130 60,120 30,100 C 40,80 70,70 100,50 Z" />
    <path class="pill-line" d="M 30,100 L 30,120 L 100,170 L 170,120 L 170,100" />
    <line class="pill-line" x1="100" y1="150" x2="100" y2="170" />
</svg>
