<svg xmlns="http://w3.org" viewBox="0 0 200 200">
    <!-- Side Shadow -->
    <path class="pill-side-light" d="M 30,100 C 30,70 60,70 100,70 C 140,70 170,70 170,100 L 170,120 C 170,90 140,90 100,90 C 60,90 30,90 30,120 Z" />
    <!-- Top Face -->
    <path class="pill-top" d="M 30,100 C 30,70 60,70 100,70 C 140,70 170,70 170,100 C 170,130 140,130 100,130 C 60,130 30,130 30,100 Z" />
    <!-- Outlines -->
    <path class="pill-line" d="M 30,100 C 30,70 60,70 100,70 C 140,70 170,70 170,100 C 170,130 140,130 100,130 C 60,130 30,130 30,100 Z" />
    <path class="pill-line" d="M 30,100 L 30,120 C 30,150 60,150 100,150 C 140,150 170,150 170,120 L 170,100" />
</svg>
